<svg width="18" height="19" viewBox="0 0 18 19" fill="none" xmlns="http://www.w3.org/2000/svg">
<mask id="path-1-inside-1_715_5247" fill="white">
<path d="M2.61148 0.704581C0.957778 2.76492 0.0895935 5.34563 0.161724 7.98657C0.233855 10.6275 1.24161 13.157 3.00531 15.124C4.76901 17.091 7.17399 18.3676 9.79144 18.7263C12.4089 19.085 15.0687 18.5024 17.2965 17.0824L15.7252 14.6172C14.0816 15.6648 12.1194 16.0946 10.1884 15.8299C8.25734 15.5653 6.48308 14.6235 5.18192 13.1723C3.88076 11.7212 3.1373 9.85508 3.08408 7.90675C3.03087 5.95841 3.67137 4.05451 4.89137 2.5345L2.61148 0.704581Z"/>
</mask>
<path d="M2.61148 0.704581C0.957778 2.76492 0.0895935 5.34563 0.161724 7.98657C0.233855 10.6275 1.24161 13.157 3.00531 15.124C4.76901 17.091 7.17399 18.3676 9.79144 18.7263C12.4089 19.085 15.0687 18.5024 17.2965 17.0824L15.7252 14.6172C14.0816 15.6648 12.1194 16.0946 10.1884 15.8299C8.25734 15.5653 6.48308 14.6235 5.18192 13.1723C3.88076 11.7212 3.1373 9.85508 3.08408 7.90675C3.03087 5.95841 3.67137 4.05451 4.89137 2.5345L2.61148 0.704581Z" stroke="#D9D9D9" stroke-width="4" mask="url(#path-1-inside-1_715_5247)"/>
</svg>
